<svg xmlns="http://www.w3.org/2000/svg" xmlns:xlink="http://www.w3.org/1999/xlink" width="500" zoomAndPan="magnify" viewBox="0 0 375 374.999991" height="500" preserveAspectRatio="xMidYMid meet" version="1.0"><rect x="-37.5" width="450" fill="#ffffff" y="-37.499999" height="449.999989" fill-opacity="1"/><rect x="-37.5" width="450" fill="#efefef" y="-37.499999" height="449.999989" fill-opacity="1"/><path stroke-linecap="round" transform="matrix(10.874999, 0, 0, 10.874999, 57.138915, 57.138923)" fill="none" stroke-linejoin="round" d="M 3.000157 10.000157 L 21.000159 10.000157 L 21.000159 6.000157 C 21.000159 5.934424 20.996926 5.869051 20.99046 5.804036 C 20.983995 5.738663 20.974297 5.674007 20.961725 5.609712 C 20.948794 5.545416 20.932989 5.482197 20.913952 5.419338 C 20.894914 5.356838 20.873003 5.295056 20.84786 5.234711 C 20.822716 5.174007 20.794699 5.115099 20.763808 5.057269 C 20.732917 4.999438 20.699153 4.943404 20.662874 4.888806 C 20.626595 4.834568 20.587443 4.781766 20.546136 4.731119 C 20.504469 4.680473 20.460647 4.631982 20.414311 4.585645 C 20.367975 4.539309 20.319483 4.495487 20.268837 4.453821 C 20.21819 4.412513 20.165748 4.373361 20.11115 4.337082 C 20.056552 4.300803 20.000518 4.267039 19.942687 4.236148 C 19.884857 4.205257 19.825949 4.17724 19.765245 4.152096 C 19.7049 4.127312 19.643118 4.105042 19.580618 4.086005 C 19.517759 4.066967 19.454541 4.051163 19.390245 4.038591 C 19.325949 4.02566 19.261294 4.015961 19.19592 4.009496 C 19.130906 4.00339 19.065532 4.000157 19.000158 4.000157 L 5.000158 4.000157 C 4.934425 4.000157 4.869051 4.00339 4.804037 4.009496 C 4.738663 4.015961 4.674008 4.02566 4.609712 4.038591 C 4.545416 4.051163 4.482198 4.066967 4.419339 4.086005 C 4.356839 4.105042 4.295057 4.127312 4.234712 4.152096 C 4.174008 4.17724 4.1151 4.205257 4.05727 4.236148 C 3.999439 4.267039 3.943405 4.300803 3.888807 4.337082 C 3.834568 4.373361 3.781767 4.412513 3.73112 4.453821 C 3.680474 4.495487 3.631982 4.539309 3.585646 4.585645 C 3.53931 4.631982 3.495488 4.680473 3.453821 4.731119 C 3.412514 4.781766 3.373361 4.834568 3.337083 4.888806 C 3.300804 4.943404 3.26704 4.999438 3.236149 5.057269 C 3.205258 5.115099 3.177241 5.174007 3.152097 5.234711 C 3.127313 5.295056 3.105042 5.356838 3.086005 5.419338 C 3.066968 5.482197 3.051163 5.545416 3.038591 5.609712 C 3.02566 5.674007 3.015962 5.738663 3.009497 5.804036 C 3.003031 5.869051 3.000157 5.934424 3.000157 6.000157 L 3.000157 20.000158 C 3.000157 20.065531 3.003031 20.130905 3.009497 20.195919 C 3.015962 20.261293 3.02566 20.325948 3.038591 20.390244 C 3.051163 20.45454 3.066968 20.517758 3.086005 20.580618 C 3.105042 20.643118 3.127313 20.704899 3.152097 20.765244 C 3.177241 20.825948 3.205258 20.884856 3.236149 20.942687 C 3.26704 21.000517 3.300804 21.056552 3.337083 21.111149 C 3.373361 21.165747 3.412514 21.21819 3.453821 21.268836 C 3.495488 21.319483 3.53931 21.367974 3.585646 21.41431 C 3.631982 21.460646 3.680474 21.504468 3.73112 21.546135 C 3.781767 21.587442 3.834568 21.626595 3.888807 21.662873 C 3.943405 21.699152 3.999439 21.732917 4.05727 21.763807 C 4.1151 21.794698 4.174008 21.822715 4.234712 21.847859 C 4.295057 21.873003 4.356839 21.894914 4.419339 21.913951 C 4.482198 21.932988 4.545416 21.948793 4.609712 21.961724 C 4.674008 21.974296 4.738663 21.983994 4.804037 21.99046 C 4.869051 21.996925 4.934425 22.000158 5.000158 22.000158 L 12.000158 22.000158 " stroke="#e12a2c" stroke-width="2" stroke-opacity="1" stroke-miterlimit="4"/><path stroke-linecap="round" transform="matrix(10.874999, 0, 0, 10.874999, 57.138915, 57.138923)" fill="none" stroke-linejoin="round" d="M 8.000158 2.000157 L 8.000158 6.000157 " stroke="#e12a2c" stroke-width="2" stroke-opacity="1" stroke-miterlimit="4"/><path stroke-linecap="round" transform="matrix(10.874999, 0, 0, 10.874999, 57.138915, 57.138923)" fill="none" stroke-linejoin="round" d="M 16.000158 2.000157 L 16.000158 6.000157 " stroke="#e12a2c" stroke-width="2" stroke-opacity="1" stroke-miterlimit="4"/><path stroke-linecap="round" transform="matrix(10.874999, 0, 0, 10.874999, 57.138915, 57.138923)" fill="none" stroke-linejoin="round" d="M 21.290029 14.69987 C 21.205259 14.615818 21.114742 14.538232 21.018478 14.467112 C 20.922572 14.395991 20.821638 14.332772 20.716035 14.276379 C 20.610432 14.220344 20.501236 14.172571 20.388808 14.132341 C 20.276021 14.092471 20.161078 14.060861 20.04398 14.037873 C 19.926523 14.014884 19.808348 14.000517 19.688736 13.995129 C 19.569483 13.989741 19.45023 13.992974 19.331337 14.004827 C 19.212443 14.01704 19.094986 14.037514 18.979325 14.066968 C 18.863305 14.096422 18.750158 14.134137 18.639885 14.180114 C 18.339957 14.300086 18.069842 14.480043 17.839957 14.709928 L 17.500158 15.050086 L 17.149943 14.709928 C 17.065532 14.625157 16.975374 14.547212 16.879469 14.475732 C 16.783564 14.404252 16.68263 14.340316 16.577385 14.283922 C 16.471782 14.227528 16.362946 14.179037 16.250158 14.138448 C 16.13773 14.098218 16.022788 14.066249 15.905331 14.042543 C 15.788233 14.019195 15.669698 14.004468 15.550446 13.998361 C 15.430834 13.992614 15.311581 13.995488 15.192687 14.006982 C 15.073434 14.018476 14.955977 14.038951 14.839957 14.068045 C 14.723937 14.096781 14.610431 14.134137 14.500158 14.180114 C 14.199871 14.300086 13.940173 14.480043 13.709928 14.709928 C 12.759856 15.649942 12.709928 17.2401 13.91 18.44987 L 17.500158 22.000158 L 21.100015 18.44987 C 22.300087 17.2401 22.240101 15.649942 21.290029 14.709928 Z M 21.290029 14.69987 " stroke="#e12a2c" stroke-width="2" stroke-opacity="1" stroke-miterlimit="4"/></svg>