<svg xmlns="http://www.w3.org/2000/svg" xmlns:xlink="http://www.w3.org/1999/xlink" width="500" zoomAndPan="magnify" viewBox="0 0 375 374.999991" height="500" preserveAspectRatio="xMidYMid meet" version="1.0"><rect x="-37.5" width="450" fill="#ffffff" y="-37.499999" height="449.999989" fill-opacity="1"/><rect x="-37.5" width="450" fill="#efefef" y="-37.499999" height="449.999989" fill-opacity="1"/><path stroke-linecap="round" transform="matrix(10.874999, 0, 0, 10.874999, 57.138915, 57.138863)" fill="none" stroke-linejoin="round" d="M 4.000157 22.000164 L 18.000158 22.000164 C 18.065532 22.000164 18.130906 21.996931 18.19592 21.990465 C 18.261293 21.984 18.325949 21.974301 18.390245 21.96173 C 18.454541 21.948799 18.517759 21.932994 18.580618 21.913957 C 18.643118 21.894919 18.7049 21.872649 18.765245 21.847865 C 18.825949 21.822721 18.884857 21.794704 18.942687 21.763813 C 19.000518 21.732922 19.056552 21.699158 19.11115 21.662879 C 19.165748 21.6266 19.21819 21.587448 19.268837 21.54614 C 19.319483 21.504474 19.367975 21.460652 19.414311 21.414316 C 19.460647 21.36798 19.504469 21.319488 19.546136 21.268842 C 19.587443 21.218195 19.626595 21.165753 19.662874 21.111155 C 19.699153 21.056557 19.732917 21.000523 19.763808 20.942692 C 19.794699 20.884862 19.822716 20.825954 19.84786 20.76525 C 19.873003 20.704905 19.894914 20.643123 19.913952 20.580623 C 19.932989 20.517764 19.948794 20.454546 19.961725 20.39025 C 19.974296 20.325954 19.983995 20.261298 19.99046 20.195925 C 19.996926 20.130911 20.000159 20.065537 20.000159 20.000163 L 20.000159 7.000163 L 15.000158 2.000162 L 6.000158 2.000162 C 5.934425 2.000162 5.869051 2.003036 5.804037 2.009501 C 5.738663 2.015967 5.674008 2.025665 5.609712 2.038596 C 5.545416 2.051168 5.482198 2.066973 5.419339 2.08601 C 5.356839 2.105047 5.295057 2.127317 5.234712 2.152102 C 5.174008 2.177246 5.1151 2.205263 5.05727 2.236154 C 4.999439 2.267044 4.943405 2.300809 4.888807 2.337087 C 4.834568 2.373366 4.781767 2.412519 4.73112 2.453826 C 4.680474 2.495493 4.631982 2.539315 4.585646 2.585651 C 4.53931 2.631987 4.495488 2.680478 4.453821 2.731125 C 4.412514 2.781771 4.373362 2.834573 4.337083 2.888812 C 4.300804 2.943409 4.26704 2.999444 4.236149 3.057274 C 4.205258 3.115105 4.177241 3.174013 4.152097 3.234717 C 4.127313 3.295062 4.105043 3.356843 4.086005 3.419343 C 4.066968 3.482203 4.051163 3.545421 4.038591 3.609717 C 4.02566 3.674013 4.015962 3.738668 4.009497 3.804042 C 4.003031 3.869056 4.000157 3.93443 4.000157 4.000162 L 4.000157 6.000162 " stroke="#e12a2c" stroke-width="2" stroke-opacity="1" stroke-miterlimit="4"/><path stroke-linecap="round" transform="matrix(10.874999, 0, 0, 10.874999, 57.138915, 57.138863)" fill="none" stroke-linejoin="round" d="M 14.000158 2.000162 L 14.000158 6.000162 C 14.000158 6.065536 14.003032 6.13091 14.009497 6.195924 C 14.015963 6.261298 14.025661 6.325953 14.038592 6.390249 C 14.051164 6.454545 14.066968 6.517763 14.086006 6.580622 C 14.105043 6.643122 14.127313 6.704904 14.152098 6.765249 C 14.177241 6.825953 14.205259 6.884861 14.23615 6.942691 C 14.26704 7.000522 14.300805 7.056556 14.337083 7.111154 C 14.373362 7.165752 14.412514 7.218194 14.453822 7.268841 C 14.495489 7.319487 14.53931 7.367979 14.585647 7.414315 C 14.631983 7.460651 14.680474 7.504473 14.731121 7.54614 C 14.781767 7.587447 14.834569 7.626599 14.888808 7.662878 C 14.943405 7.699157 14.99944 7.732921 15.05727 7.763812 C 15.115101 7.794703 15.174009 7.82272 15.234713 7.847864 C 15.295058 7.872648 15.356839 7.894918 15.419339 7.913956 C 15.482198 7.932993 15.545417 7.948798 15.609713 7.961729 C 15.674009 7.974301 15.738664 7.983999 15.804038 7.990464 C 15.869052 7.99693 15.934426 8.000163 16.000158 8.000163 L 20.000159 8.000163 " stroke="#e12a2c" stroke-width="2" stroke-opacity="1" stroke-miterlimit="4"/><path stroke-linecap="round" transform="matrix(10.874999, 0, 0, 10.874999, 57.138915, 57.138863)" fill="none" stroke-linejoin="round" d="M 10.290029 10.699875 C 10.204899 10.615105 10.114382 10.53716 10.017758 10.46568 C 9.921494 10.394559 9.820201 10.330623 9.714238 10.274229 C 9.608276 10.217835 9.498721 10.169703 9.385575 10.129473 C 9.272428 10.089243 9.157126 10.057634 9.03931 10.034645 C 8.921494 10.011657 8.8026 9.997289 8.682629 9.991901 C 8.562658 9.986513 8.443046 9.990105 8.323793 10.002318 C 8.20454 10.014531 8.086724 10.035723 7.970345 10.065536 C 7.853965 10.095349 7.740459 10.133424 7.629827 10.18012 C 7.339957 10.300091 7.069842 10.480048 6.850014 10.709933 L 6.500158 11.050091 L 6.149942 10.709933 C 6.065531 10.625163 5.975373 10.547217 5.879468 10.475737 C 5.783563 10.404258 5.682629 10.340321 5.577385 10.283927 C 5.471781 10.227533 5.362945 10.179042 5.250158 10.138453 C 5.137729 10.097864 5.022787 10.066255 4.90533 10.042548 C 4.788232 10.0192 4.669698 10.004473 4.550445 9.998367 C 4.430833 9.99262 4.31158 9.995493 4.192686 10.006987 C 4.073433 10.018482 3.955976 10.038956 3.839956 10.068051 C 3.723936 10.096786 3.61043 10.134143 3.500157 10.18012 C 3.19987 10.300091 2.940172 10.480048 2.709928 10.709933 C 1.759856 11.649947 1.709927 13.240105 2.909999 14.449876 L 6.500158 18.000163 L 10.100014 14.449876 C 11.300086 13.240105 11.2401 11.649947 10.290029 10.709933 Z M 10.290029 10.699875 " stroke="#e12a2c" stroke-width="2" stroke-opacity="1" stroke-miterlimit="4"/></svg>