<svg xmlns="http://www.w3.org/2000/svg" xmlns:xlink="http://www.w3.org/1999/xlink" width="500" zoomAndPan="magnify" viewBox="0 0 375 374.999991" height="500" preserveAspectRatio="xMidYMid meet" version="1.0"><rect x="-37.5" width="450" fill="#ffffff" y="-37.499999" height="449.999989" fill-opacity="1"/><rect x="-37.5" width="450" fill="#efefef" y="-37.499999" height="449.999989" fill-opacity="1"/><path stroke-linecap="round" transform="matrix(10.874999, 0, 0, 10.874999, 57.138915, 57.138863)" fill="none" stroke-linejoin="round" d="M 11.000158 20.000163 L 4.000157 20.000163 C 3.934425 20.000163 3.869051 19.996931 3.804037 19.990465 C 3.738663 19.984 3.674008 19.974301 3.609712 19.961729 C 3.545416 19.948798 3.482198 19.932994 3.419338 19.913956 C 3.356838 19.894919 3.295057 19.872649 3.234712 19.847865 C 3.174008 19.822721 3.1151 19.794704 3.057269 19.763813 C 2.999439 19.732922 2.943405 19.699158 2.888807 19.662879 C 2.834568 19.6266 2.781767 19.587448 2.73112 19.54614 C 2.680473 19.504474 2.631982 19.460652 2.585646 19.414316 C 2.53931 19.367979 2.495488 19.319488 2.453821 19.268841 C 2.412514 19.218195 2.373361 19.165752 2.337083 19.111155 C 2.300804 19.056557 2.26704 19.000522 2.236149 18.942692 C 2.205258 18.884862 2.177241 18.825954 2.152097 18.765249 C 2.127313 18.704905 2.105042 18.643123 2.086005 18.580623 C 2.066968 18.517764 2.051163 18.454545 2.038591 18.390249 C 2.02566 18.325953 2.015962 18.261298 2.009496 18.195925 C 2.003031 18.13091 2.000157 18.065537 2.000157 18.000163 L 2.000157 5.000162 C 2.000157 4.93443 2.003031 4.869056 2.009496 4.804042 C 2.015962 4.738668 2.02566 4.674013 2.038591 4.609717 C 2.051163 4.545421 2.066968 4.482203 2.086005 4.419343 C 2.105042 4.356843 2.127313 4.295062 2.152097 4.234717 C 2.177241 4.174013 2.205258 4.115105 2.236149 4.057274 C 2.26704 3.999444 2.300804 3.943409 2.337083 3.888812 C 2.373361 3.834573 2.412514 3.781771 2.453821 3.731125 C 2.495488 3.680478 2.53931 3.631987 2.585646 3.585651 C 2.631982 3.539315 2.680473 3.495493 2.73112 3.453826 C 2.781767 3.412519 2.834568 3.373366 2.888807 3.337088 C 2.943405 3.300809 2.999439 3.267044 3.057269 3.236154 C 3.1151 3.205263 3.174008 3.177246 3.234712 3.152102 C 3.295057 3.127317 3.356838 3.105047 3.419338 3.08601 C 3.482198 3.066973 3.545416 3.051168 3.609712 3.038596 C 3.674008 3.025665 3.738663 3.015967 3.804037 3.009501 C 3.869051 3.003036 3.934425 3.000162 4.000157 3.000162 L 7.899942 3.000162 C 8.067327 2.998366 8.232198 3.017404 8.394554 3.057274 C 8.556911 3.096786 8.712083 3.156053 8.859712 3.234717 C 9.007342 3.313381 9.143118 3.408927 9.266681 3.521355 C 9.390244 3.634142 9.498003 3.76022 9.589957 3.899947 L 10.399942 5.100019 C 10.491178 5.238309 10.5975 5.363309 10.719626 5.475019 C 10.841753 5.586729 10.975733 5.681915 11.121566 5.760579 C 11.267399 5.839243 11.420417 5.89851 11.580977 5.939099 C 11.741537 5.979688 11.904612 5.999803 12.069842 6.000162 L 20.000159 6.000162 C 20.065532 6.000162 20.130906 6.003036 20.19592 6.009502 C 20.261294 6.015967 20.325949 6.025665 20.390245 6.038596 C 20.454541 6.051168 20.517759 6.066973 20.580618 6.08601 C 20.643118 6.105048 20.7049 6.127318 20.765245 6.152102 C 20.825949 6.177246 20.884857 6.205263 20.942687 6.236154 C 21.000518 6.267045 21.056552 6.300809 21.11115 6.337088 C 21.165748 6.373366 21.21819 6.412519 21.268837 6.453826 C 21.319483 6.495493 21.367975 6.539315 21.414311 6.585651 C 21.460647 6.631987 21.504469 6.680479 21.546136 6.731125 C 21.587443 6.781772 21.626595 6.834573 21.662874 6.888812 C 21.699153 6.94341 21.732917 6.999444 21.763808 7.057275 C 21.794699 7.115105 21.822716 7.174013 21.84786 7.234717 C 21.873003 7.295062 21.894914 7.356844 21.913952 7.419344 C 21.932989 7.482203 21.948794 7.545421 21.961725 7.609717 C 21.974297 7.674013 21.983995 7.738668 21.99046 7.804042 C 21.996926 7.869056 22.000159 7.93443 22.000159 8.000163 L 22.000159 9.500163 " stroke="#e12a2c" stroke-width="2" stroke-opacity="1" stroke-miterlimit="4"/><path stroke-linecap="round" transform="matrix(10.874999, 0, 0, 10.874999, 57.138915, 57.138863)" fill="none" stroke-linejoin="round" d="M 13.899943 17.449876 C 12.699871 16.250163 12.759856 14.649948 13.699871 13.719991 C 13.756264 13.663597 13.815173 13.610077 13.876595 13.55943 C 13.938377 13.508784 14.002313 13.46137 14.068405 13.417189 C 14.134497 13.372649 14.202744 13.3317 14.273147 13.294344 C 14.343549 13.256628 14.415388 13.222505 14.489023 13.191973 C 14.562658 13.161442 14.637371 13.134502 14.713879 13.111513 C 14.790029 13.088166 14.867256 13.068769 14.945201 13.053324 C 15.023506 13.037878 15.10217 13.026025 15.181552 13.018123 C 15.260934 13.01058 15.340316 13.006628 15.420058 13.006628 C 15.499799 13.006628 15.579181 13.01058 15.658563 13.018123 C 15.737946 13.026025 15.816609 13.037878 15.894555 13.053324 C 15.972859 13.068769 16.050086 13.088166 16.126236 13.111513 C 16.202385 13.134502 16.277457 13.161442 16.351092 13.191973 C 16.424727 13.222505 16.496566 13.256628 16.566969 13.294344 C 16.637012 13.3317 16.705259 13.372649 16.77171 13.417189 C 16.837802 13.46137 16.901739 13.508784 16.963161 13.55943 C 17.024943 13.610077 17.083851 13.663597 17.139885 13.719991 L 17.500158 14.060149 L 17.839957 13.719991 C 17.896351 13.663238 17.9549 13.608999 18.016681 13.557993 C 18.078104 13.506628 18.142041 13.458855 18.208133 13.413956 C 18.274225 13.369057 18.342831 13.327749 18.412874 13.289674 C 18.483276 13.2516 18.555475 13.217117 18.62911 13.185867 C 18.702745 13.154976 18.777817 13.127677 18.854325 13.10433 C 18.930834 13.080623 19.00842 13.060867 19.086725 13.045062 C 19.165029 13.029258 19.244052 13.017045 19.323434 13.009143 C 19.403176 13.000881 19.482917 12.996571 19.563018 12.996571 C 19.642759 12.996212 19.72286 13.000163 19.802242 13.007706 C 19.881983 13.015249 19.961006 13.026743 20.039311 13.042189 C 20.117975 13.057634 20.195561 13.077031 20.272069 13.100019 C 20.348578 13.123367 20.424009 13.149947 20.497644 13.180479 C 20.571638 13.211011 20.643837 13.245134 20.714598 13.28285 C 20.785001 13.320565 20.853607 13.361514 20.920058 13.406054 C 20.986509 13.450594 21.050805 13.498008 21.112587 13.549014 C 21.174368 13.59966 21.233636 13.653539 21.290029 13.709933 C 22.240101 14.660005 22.290029 16.240106 21.089957 17.449876 L 17.500158 21.000163 Z M 13.899943 17.449876 " stroke="#e12a2c" stroke-width="2" stroke-opacity="1" stroke-miterlimit="4"/></svg>