<svg xmlns="http://www.w3.org/2000/svg" xmlns:xlink="http://www.w3.org/1999/xlink" width="1500" zoomAndPan="magnify" viewBox="0 0 1125 374.999991" height="500" preserveAspectRatio="xMidYMid meet" version="1.0"><defs><g/></defs><g fill="#ff2d20" fill-opacity="1"><g transform="translate(331.064524, 265.313657)"><g><path d="M 14.671875 0 L 14.671875 -168.796875 L 82.25 -168.796875 C 100.875 -168.796875 114.867188 -164.742188 124.234375 -156.640625 C 133.609375 -148.535156 138.296875 -138.164062 138.296875 -125.53125 C 138.296875 -115.582031 135.410156 -107.546875 129.640625 -101.421875 C 123.867188 -95.296875 116.59375 -91.242188 107.8125 -89.265625 L 107.8125 -87.609375 C 114.238281 -87.335938 120.265625 -85.523438 125.890625 -82.171875 C 131.523438 -78.816406 136.097656 -74.144531 139.609375 -68.15625 C 143.128906 -62.164062 144.890625 -55 144.890625 -46.65625 C 144.890625 -37.695312 142.675781 -29.695312 138.25 -22.65625 C 133.832031 -15.625 127.3125 -10.085938 118.6875 -6.046875 C 110.0625 -2.015625 99.425781 0 86.78125 0 Z M 50.359375 -29.171875 L 79.453125 -29.171875 C 89.453125 -29.171875 96.71875 -31.09375 101.25 -34.9375 C 105.78125 -38.789062 108.046875 -43.875 108.046875 -50.1875 C 108.046875 -57.164062 105.5625 -62.878906 100.59375 -67.328125 C 95.625 -71.785156 88.851562 -74.015625 80.28125 -74.015625 L 50.359375 -74.015625 Z M 50.359375 -98.15625 L 76.8125 -98.15625 C 84.125 -98.15625 90.195312 -100.066406 95.03125 -103.890625 C 99.863281 -107.710938 102.28125 -112.945312 102.28125 -119.59375 C 102.28125 -125.6875 100.125 -130.601562 95.8125 -134.34375 C 91.5 -138.082031 85.382812 -139.953125 77.46875 -139.953125 L 50.359375 -139.953125 Z M 50.359375 -98.15625 "/></g></g></g><g fill="#ff2d20" fill-opacity="1"><g transform="translate(484.451697, 265.313657)"><g><path d="M 49.125 -168.796875 L 49.125 0 L 14.015625 0 L 14.015625 -168.796875 Z M 49.125 -168.796875 "/></g></g></g><g fill="#ff2d20" fill-opacity="1"><g transform="translate(547.58688, 265.313657)"><g><path d="M 71.203125 2.46875 C 58.398438 2.46875 47.34375 -0.257812 38.03125 -5.71875 C 28.71875 -11.1875 21.535156 -18.828125 16.484375 -28.640625 C 11.429688 -38.453125 8.90625 -49.835938 8.90625 -62.796875 C 8.90625 -75.878906 11.429688 -87.320312 16.484375 -97.125 C 21.535156 -106.9375 28.71875 -114.578125 38.03125 -120.046875 C 47.34375 -125.515625 58.398438 -128.25 71.203125 -128.25 C 84.015625 -128.25 95.078125 -125.515625 104.390625 -120.046875 C 113.703125 -114.578125 120.882812 -106.9375 125.9375 -97.125 C 130.988281 -87.320312 133.515625 -75.878906 133.515625 -62.796875 C 133.515625 -49.835938 130.988281 -38.453125 125.9375 -28.640625 C 120.882812 -18.828125 113.703125 -11.1875 104.390625 -5.71875 C 95.078125 -0.257812 84.015625 2.46875 71.203125 2.46875 Z M 71.375 -24.71875 C 80.050781 -24.71875 86.628906 -28.34375 91.109375 -35.59375 C 95.585938 -42.851562 97.828125 -52.003906 97.828125 -63.046875 C 97.828125 -74.097656 95.585938 -83.257812 91.109375 -90.53125 C 86.628906 -97.8125 80.050781 -101.453125 71.375 -101.453125 C 62.53125 -101.453125 55.851562 -97.8125 51.34375 -90.53125 C 46.84375 -83.257812 44.59375 -74.097656 44.59375 -63.046875 C 44.59375 -52.003906 46.84375 -42.851562 51.34375 -35.59375 C 55.851562 -28.34375 62.53125 -24.71875 71.375 -24.71875 Z M 71.375 -24.71875 "/></g></g></g><g fill="#ff2d20" fill-opacity="1"><g transform="translate(690.011944, 265.313657)"><g><path d="M 71.203125 2.46875 C 58.398438 2.46875 47.34375 -0.257812 38.03125 -5.71875 C 28.71875 -11.1875 21.535156 -18.828125 16.484375 -28.640625 C 11.429688 -38.453125 8.90625 -49.835938 8.90625 -62.796875 C 8.90625 -75.878906 11.429688 -87.320312 16.484375 -97.125 C 21.535156 -106.9375 28.71875 -114.578125 38.03125 -120.046875 C 47.34375 -125.515625 58.398438 -128.25 71.203125 -128.25 C 84.015625 -128.25 95.078125 -125.515625 104.390625 -120.046875 C 113.703125 -114.578125 120.882812 -106.9375 125.9375 -97.125 C 130.988281 -87.320312 133.515625 -75.878906 133.515625 -62.796875 C 133.515625 -49.835938 130.988281 -38.453125 125.9375 -28.640625 C 120.882812 -18.828125 113.703125 -11.1875 104.390625 -5.71875 C 95.078125 -0.257812 84.015625 2.46875 71.203125 2.46875 Z M 71.375 -24.71875 C 80.050781 -24.71875 86.628906 -28.34375 91.109375 -35.59375 C 95.585938 -42.851562 97.828125 -52.003906 97.828125 -63.046875 C 97.828125 -74.097656 95.585938 -83.257812 91.109375 -90.53125 C 86.628906 -97.8125 80.050781 -101.453125 71.375 -101.453125 C 62.53125 -101.453125 55.851562 -97.8125 51.34375 -90.53125 C 46.84375 -83.257812 44.59375 -74.097656 44.59375 -63.046875 C 44.59375 -52.003906 46.84375 -42.851562 51.34375 -35.59375 C 55.851562 -28.34375 62.53125 -24.71875 71.375 -24.71875 Z M 71.375 -24.71875 "/></g></g></g><g fill="#ff2d20" fill-opacity="1"><g transform="translate(832.437008, 265.313657)"><g><path d="M 60.65625 2.0625 C 51.039062 2.0625 42.359375 -0.421875 34.609375 -5.390625 C 26.867188 -10.367188 20.71875 -17.707031 16.15625 -27.40625 C 11.59375 -37.101562 9.3125 -49.015625 9.3125 -63.140625 C 9.3125 -77.640625 11.660156 -89.710938 16.359375 -99.359375 C 21.054688 -109.003906 27.289062 -116.226562 35.0625 -121.03125 C 42.84375 -125.84375 51.347656 -128.25 60.578125 -128.25 C 67.660156 -128.25 73.578125 -127.050781 78.328125 -124.65625 C 83.085938 -122.269531 86.9375 -119.316406 89.875 -115.796875 C 92.8125 -112.285156 95.050781 -108.796875 96.59375 -105.328125 L 97.671875 -105.328125 L 97.671875 -168.796875 L 132.703125 -168.796875 L 132.703125 0 L 98.078125 0 L 98.078125 -20.28125 L 96.59375 -20.28125 C 95 -16.757812 92.691406 -13.28125 89.671875 -9.84375 C 86.648438 -6.414062 82.757812 -3.570312 78 -1.3125 C 73.25 0.9375 67.46875 2.0625 60.65625 2.0625 Z M 71.78125 -25.875 C 80.25 -25.875 86.800781 -29.296875 91.4375 -36.140625 C 96.082031 -42.984375 98.40625 -52.035156 98.40625 -63.296875 C 98.40625 -74.617188 96.097656 -83.617188 91.484375 -90.296875 C 86.867188 -96.972656 80.300781 -100.3125 71.78125 -100.3125 C 63.101562 -100.3125 56.5 -96.890625 51.96875 -90.046875 C 47.4375 -83.203125 45.171875 -74.285156 45.171875 -63.296875 C 45.171875 -52.253906 47.445312 -43.253906 52 -36.296875 C 56.5625 -29.347656 63.15625 -25.875 71.78125 -25.875 Z M 71.78125 -25.875 "/></g></g></g><g fill="#ff2d20" fill-opacity="1"><g transform="translate(979.889854, 265.313657)"><g><path d="M 34.453125 49.28125 C 29.453125 49.28125 25.175781 48.851562 21.625 48 C 18.082031 47.15625 15.328125 46.289062 13.359375 45.40625 L 21.265625 18.21875 C 27.472656 20.082031 32.707031 20.570312 36.96875 19.6875 C 41.226562 18.8125 44.59375 15.488281 47.0625 9.71875 L 49.375 3.625 L 3.953125 -126.59375 L 40.875 -126.59375 L 67.09375 -33.625 L 68.40625 -33.625 L 94.859375 -126.59375 L 132.03125 -126.59375 L 82.578125 14.5 C 79.015625 24.613281 73.316406 32.9375 65.484375 39.46875 C 57.648438 46.007812 47.304688 49.28125 34.453125 49.28125 Z M 34.453125 49.28125 "/></g></g></g><path stroke-linecap="round" transform="matrix(12.335208, 0, 0, 12.335208, 0.0000135, 33.63537)" fill="none" stroke-linejoin="round" d="M 18.999856 13.999988 C 20.490128 12.540117 22.000034 10.789855 22.000034 8.499979 C 22.000034 8.410043 21.997817 8.320108 21.993384 8.230172 C 21.98895 8.140236 21.9823 8.050617 21.973433 7.960998 C 21.964566 7.871379 21.953799 7.782077 21.940499 7.693091 C 21.927199 7.603789 21.911998 7.515437 21.894264 7.427085 C 21.876847 7.338732 21.856897 7.251013 21.835046 7.163611 C 21.813196 7.076209 21.789445 6.98944 21.763161 6.903304 C 21.737194 6.817169 21.708693 6.731983 21.678609 6.647114 C 21.648208 6.562246 21.615907 6.478327 21.58139 6.395358 C 21.546872 6.312072 21.510455 6.229737 21.47182 6.148351 C 21.433503 6.066966 21.392968 5.986847 21.350534 5.907362 C 21.308099 5.827877 21.263765 5.749658 21.21753 5.672389 C 21.171296 5.595121 21.123161 5.519119 21.073127 5.444383 C 21.023092 5.369648 20.971157 5.295863 20.917639 5.223661 C 20.864121 5.151459 20.808703 5.080524 20.751702 5.010855 C 20.694383 4.941187 20.635799 4.873102 20.575314 4.806283 C 20.514829 4.739782 20.452761 4.674547 20.389109 4.610895 C 20.325457 4.547243 20.260222 4.485175 20.193721 4.42469 C 20.126902 4.364205 20.058817 4.305621 19.989149 4.248302 C 19.91948 4.191301 19.848545 4.135883 19.776343 4.082365 C 19.704141 4.028847 19.630356 3.976912 19.555621 3.926877 C 19.480885 3.876843 19.404883 3.828708 19.327615 3.782474 C 19.250346 3.736239 19.172127 3.691905 19.092642 3.64947 C 19.013157 3.607036 18.933038 3.566501 18.851653 3.528184 C 18.770267 3.489549 18.687932 3.453132 18.604646 3.418614 C 18.521677 3.384097 18.437759 3.351796 18.35289 3.321395 C 18.268021 3.291311 18.182835 3.26281 18.0967 3.236843 C 18.010564 3.210559 17.923795 3.186808 17.836393 3.164958 C 17.748991 3.143107 17.661272 3.123157 17.57292 3.10574 C 17.484567 3.088006 17.395898 3.072805 17.306913 3.059505 C 17.217927 3.046205 17.128625 3.035438 17.039006 3.026571 C 16.949387 3.017704 16.859768 3.011054 16.769832 3.00662 C 16.679896 3.002187 16.589961 2.99997 16.500025 2.99997 C 14.739946 2.99997 13.499848 3.5 12.000076 5.000088 C 10.499987 3.5 9.259888 2.99997 7.500126 2.99997 C 7.409874 2.99997 7.319938 3.002187 7.230002 3.00662 C 7.140067 3.011054 7.050448 3.017704 6.960829 3.026571 C 6.87121 3.035438 6.781907 3.046205 6.692922 3.059505 C 6.603936 3.072805 6.515267 3.088006 6.426915 3.10574 C 6.338563 3.123157 6.250844 3.143107 6.163758 3.164958 C 6.076356 3.186808 5.989587 3.210559 5.903451 3.236843 C 5.817316 3.26281 5.731814 3.291311 5.647261 3.321395 C 5.562393 3.351796 5.478474 3.384097 5.395188 3.418614 C 5.312219 3.453132 5.229884 3.489549 5.148499 3.528184 C 5.067113 3.566501 4.986678 3.607036 4.907192 3.64947 C 4.828024 3.691905 4.749488 3.736239 4.672536 3.782474 C 4.595268 3.828708 4.519266 3.876843 4.444214 3.926877 C 4.369478 3.976912 4.29601 4.028847 4.223808 4.082365 C 4.151289 4.135883 4.080354 4.191301 4.010686 4.248302 C 3.941334 4.305621 3.873249 4.364205 3.806431 4.42469 C 3.739612 4.485175 3.674694 4.547243 3.611042 4.610895 C 3.547391 4.674547 3.485322 4.739782 3.424837 4.806283 C 3.364352 4.873102 3.305451 4.941187 3.248449 5.010855 C 3.191448 5.080524 3.13603 5.151459 3.082512 5.223661 C 3.028677 5.295863 2.977059 5.369648 2.927025 5.444383 C 2.87699 5.519119 2.828855 5.595121 2.782621 5.672389 C 2.73607 5.749658 2.691735 5.827877 2.649301 5.907362 C 2.606866 5.986847 2.566649 6.066966 2.528014 6.148351 C 2.489697 6.229737 2.452962 6.312072 2.418761 6.395358 C 2.384244 6.478327 2.351943 6.562246 2.321542 6.647114 C 2.291141 6.731983 2.262957 6.817169 2.236673 6.903304 C 2.210706 6.98944 2.186639 7.076209 2.164788 7.163611 C 2.142938 7.251013 2.123304 7.338732 2.10557 7.427085 C 2.088153 7.515437 2.072636 7.603789 2.059652 7.693091 C 2.046352 7.782077 2.035268 7.871379 2.026401 7.960998 C 2.017534 8.050617 2.010884 8.140236 2.006767 8.230172 C 2.002334 8.320108 2.000117 8.410043 2.000117 8.499979 C 2.000117 10.799988 3.499889 12.549934 4.999978 13.999988 L 12.000076 21.000085 Z M 18.999856 13.999988 " stroke="#ff2d20" stroke-width="2" stroke-opacity="1" stroke-miterlimit="4"/><path stroke-linecap="round" transform="matrix(12.335208, 0, 0, 12.335208, 0.0000135, 33.63537)" fill="none" stroke-linejoin="round" d="M 3.219949 11.999869 L 9.499928 11.999869 L 9.999957 11.000127 L 12.000076 15.500076 L 13.999877 8.499979 L 15.499966 11.999869 L 20.770069 11.999869 " stroke="#ff2d20" stroke-width="2" stroke-opacity="1" stroke-miterlimit="4"/></svg>