<svg xmlns="http://www.w3.org/2000/svg" xmlns:xlink="http://www.w3.org/1999/xlink" width="500" zoomAndPan="magnify" viewBox="0 0 375 374.999991" height="500" preserveAspectRatio="xMidYMid meet" version="1.0"><rect x="-37.5" width="450" fill="#ffffff" y="-37.499999" height="449.999989" fill-opacity="1"/><rect x="-37.5" width="450" fill="#efefef" y="-37.499999" height="449.999989" fill-opacity="1"/><path stroke-linecap="round" transform="matrix(10.874999, 0, 0, 10.874999, 57.138915, 57.138911)" fill="none" stroke-linejoin="round" d="M 11.000158 14.000159 L 13.000158 14.000159 C 13.065532 14.000159 13.130905 13.996926 13.19592 13.99046 C 13.261293 13.983995 13.325948 13.974296 13.390244 13.961725 C 13.45454 13.948794 13.517759 13.932989 13.580618 13.913952 C 13.643118 13.894914 13.7049 13.873003 13.765244 13.84786 C 13.825948 13.822716 13.884856 13.794699 13.942687 13.763808 C 14.000517 13.732917 14.056552 13.699153 14.11115 13.662874 C 14.165747 13.626595 14.21819 13.587443 14.268836 13.546136 C 14.319483 13.504469 14.367974 13.460647 14.41431 13.414311 C 14.460647 13.367975 14.504469 13.319483 14.546135 13.268837 C 14.587443 13.21819 14.626595 13.165748 14.662874 13.11115 C 14.699152 13.056552 14.732917 13.000518 14.763808 12.942687 C 14.794698 12.884857 14.822716 12.825949 14.847859 12.765245 C 14.873003 12.7049 14.894914 12.643118 14.913951 12.580618 C 14.932989 12.517759 14.948793 12.454541 14.961724 12.390245 C 14.974296 12.325949 14.983994 12.261294 14.99046 12.19592 C 14.996925 12.130906 15.000158 12.065532 15.000158 12.000158 C 15.000158 11.934426 14.996925 11.869052 14.99046 11.804038 C 14.983994 11.738664 14.974296 11.674009 14.961724 11.609713 C 14.948793 11.545417 14.932989 11.482199 14.913951 11.419339 C 14.894914 11.356839 14.873003 11.295058 14.847859 11.234713 C 14.822716 11.174009 14.794698 11.115101 14.763808 11.05727 C 14.732917 10.99944 14.699152 10.943405 14.662874 10.888808 C 14.626595 10.834569 14.587443 10.781768 14.546135 10.731121 C 14.504469 10.680474 14.460647 10.631983 14.41431 10.585647 C 14.367974 10.539311 14.319483 10.495489 14.268836 10.453822 C 14.21819 10.412515 14.165747 10.373362 14.11115 10.337084 C 14.056552 10.300805 14.000517 10.26704 13.942687 10.23615 C 13.884856 10.205259 13.825948 10.177242 13.765244 10.152098 C 13.7049 10.127313 13.643118 10.105043 13.580618 10.086006 C 13.517759 10.066969 13.45454 10.051164 13.390244 10.038592 C 13.325948 10.025661 13.261293 10.015963 13.19592 10.009497 C 13.130905 10.003032 13.065532 10.000158 13.000158 10.000158 L 10.000158 10.000158 C 9.399942 10.000158 8.899942 10.199871 8.600014 10.600015 L 3.000157 16.000159 " stroke="#e12a2c" stroke-width="2" stroke-opacity="1" stroke-miterlimit="4"/><path stroke-linecap="round" transform="matrix(10.874999, 0, 0, 10.874999, 57.138915, 57.138911)" fill="none" stroke-linejoin="round" d="M 7.000158 20.000159 L 8.600014 18.600015 C 8.899942 18.199871 9.399942 18.000159 10.000158 18.000159 L 14.000158 18.000159 C 15.100015 18.000159 16.100015 17.600015 16.800086 16.800087 L 21.399943 12.399943 C 21.447716 12.355044 21.492975 12.30763 21.535719 12.258061 C 21.578822 12.208851 21.619412 12.157127 21.657127 12.103607 C 21.695202 12.050446 21.730403 11.99513 21.76273 11.938018 C 21.795417 11.881265 21.824871 11.822716 21.851811 11.763089 C 21.878391 11.703104 21.902098 11.6424 21.922932 11.5799 C 21.943765 11.517759 21.961366 11.4549 21.976093 11.390963 C 21.99046 11.327026 22.001955 11.26273 22.010216 11.197716 C 22.018478 11.132701 22.023506 11.067328 22.025302 11.001954 C 22.027098 10.936222 22.025662 10.870848 22.020992 10.805474 C 22.016682 10.740101 22.008779 10.675087 21.997644 10.610431 C 21.986868 10.545776 21.972501 10.481839 21.955259 10.418621 C 21.938018 10.355403 21.917903 10.293262 21.894555 10.231839 C 21.871208 10.170776 21.844627 10.11079 21.815532 10.052242 C 21.786437 9.993693 21.75411 9.936581 21.719268 9.880905 C 21.684426 9.825589 21.64707 9.77171 21.60684 9.719986 C 21.56661 9.668262 21.524225 9.618334 21.478966 9.57092 C 21.434067 9.523147 21.387012 9.477888 21.337443 9.434785 C 21.287874 9.39204 21.236509 9.351451 21.182989 9.313377 C 21.129469 9.275661 21.074512 9.24046 21.0174 9.207773 C 20.960647 9.175086 20.902098 9.145632 20.842472 9.118693 C 20.782486 9.092112 20.721782 9.068046 20.659641 9.047572 C 20.597501 9.026739 20.534282 9.008779 20.470345 8.994411 C 20.406409 8.979684 20.342113 8.96819 20.277098 8.959928 C 20.212084 8.951667 20.14671 8.946638 20.081337 8.944842 C 20.015604 8.942687 19.95023 8.944124 19.884857 8.948793 C 19.819483 8.953463 19.754469 8.961006 19.689814 8.972141 C 19.625159 8.982917 19.561222 8.996925 19.498003 9.014167 C 19.434785 9.031408 19.372644 9.051882 19.311581 9.07523 C 19.250158 9.098578 19.190173 9.124799 19.131624 9.153894 C 19.073075 9.182989 19.015963 9.215316 18.960288 9.249799 C 18.904612 9.284641 18.851092 9.322357 18.799368 9.362227 C 18.747285 9.402457 18.697716 9.444842 18.649943 9.490101 L 14.449871 13.389886 " stroke="#e12a2c" stroke-width="2" stroke-opacity="1" stroke-miterlimit="4"/><path stroke-linecap="round" transform="matrix(10.874999, 0, 0, 10.874999, 57.138915, 57.138911)" fill="none" stroke-linejoin="round" d="M 2.000157 15.000159 L 8.000158 21.000159 " stroke="#e12a2c" stroke-width="2" stroke-opacity="1" stroke-miterlimit="4"/><path stroke-linecap="round" transform="matrix(10.874999, 0, 0, 10.874999, 57.138915, 57.138911)" fill="none" stroke-linejoin="round" d="M 19.500159 8.500158 C 20.199871 7.800086 21.000159 6.899943 21.000159 5.800086 C 21.0174 5.648147 21.02207 5.496207 21.013808 5.343908 C 21.005547 5.19125 20.984713 5.040747 20.951308 4.891681 C 20.917903 4.742615 20.872285 4.5975 20.814455 4.456336 C 20.756624 4.314813 20.687659 4.179396 20.60684 4.049727 C 20.52638 3.920057 20.435503 3.797931 20.334569 3.683348 C 20.233636 3.568764 20.123722 3.46352 20.004828 3.367615 C 19.886294 3.27135 19.760575 3.185862 19.627314 3.111149 C 19.494411 3.036077 19.356121 2.972859 19.212443 2.921135 C 19.068765 2.869411 18.921854 2.829899 18.771351 2.80296 C 18.621207 2.77602 18.469627 2.761652 18.316969 2.759856 C 18.164311 2.758419 18.01273 2.769195 17.861868 2.793261 C 17.711006 2.816968 17.563377 2.853247 17.418621 2.901738 C 17.273865 2.950589 17.134138 3.010575 16.99944 3.082773 C 16.864742 3.154971 16.737227 3.237586 16.616538 3.330977 C 16.495848 3.424368 16.383779 3.527457 16.280331 3.639526 C 16.176882 3.751954 16.083492 3.871925 16.000158 4.000158 C 15.911437 3.881983 15.813736 3.77171 15.707414 3.66898 C 15.601451 3.566609 15.487586 3.472859 15.366538 3.388448 C 15.245129 3.304037 15.118334 3.229684 14.985072 3.165388 C 14.85217 3.101451 14.714957 3.047931 14.573434 3.005905 C 14.431911 2.96352 14.287874 2.932629 14.141681 2.913233 C 13.995129 2.893836 13.848218 2.886293 13.700589 2.890244 C 13.55296 2.894195 13.406408 2.91 13.261293 2.937299 C 13.116178 2.964957 12.974296 3.003391 12.835287 3.053678 C 12.696279 3.103606 12.562299 3.16431 12.432989 3.23579 C 12.303678 3.30727 12.180833 3.388448 12.064454 3.479325 C 11.948075 3.570201 11.839598 3.669698 11.739382 3.778175 C 11.638807 3.886293 11.547572 4.001954 11.465675 4.124799 C 11.383419 4.247284 11.31158 4.375876 11.250158 4.510215 C 11.188376 4.644554 11.138089 4.782845 11.098218 4.925086 C 11.058707 5.067328 11.03069 5.211724 11.014167 5.358635 C 10.998003 5.505187 10.992974 5.652457 11.000158 5.800086 C 11.000158 7.000158 11.800086 7.800086 12.500158 8.600015 L 16.000158 12.000158 Z M 19.500159 8.500158 " stroke="#e12a2c" stroke-width="2" stroke-opacity="1" stroke-miterlimit="4"/></svg>